<?xml version="1.0" encoding="UTF-8"?>
<svg id="Layer_1" data-name="Layer 1" xmlns="http://www.w3.org/2000/svg" viewBox="0 0 484.27 484.27">
  <defs>
    <style>
      .cls-1 {
        fill: #181348;
      }
    </style>
  </defs>
  <path class="cls-1" d="M364.28,432.13c-5.32-2.65-7.25-6.96-6.78-12.81,.34-4.21,.1-8.48,.06-12.72-.06-6.06-2.44-8.51-8.48-8.52-19.93-.04-39.86-.01-59.79-.01-37.31,0-74.63,0-111.94,0-7.85,0-9.78-1.91-9.78-9.71,0-11.87-.02-23.74,0-35.62,.02-6.43,2.3-8.5,8.64-8.81,7.17-.34,13.66,1.1,20.38,3.97,32.34,13.82,64.56,12.87,96.39-2.16,2.2-1.04,4.81-1.66,7.24-1.69,15.69-.15,31.38-.07,47.07-.08,8.56,0,10.29-1.76,10.29-10.5,0-4.52,0-9.05,0-13.57,0-4.04,1.63-7.16,5.32-8.92,3.74-1.78,7.22-.95,10.19,1.77,18.63,17.11,37.25,34.24,55.82,51.43,1.3,1.2,2.18,2.86,3.25,4.31v5.09c-2.31,2.6-4.43,5.4-6.97,7.75-16.45,15.26-32.96,30.46-49.53,45.59-2.15,1.97-4.74,3.47-7.12,5.18h-4.24Z"/>
  <path class="cls-1" d="M119.99,52.13c5.36,2.62,7.25,6.95,6.78,12.79-.33,4.21-.09,8.48-.06,12.72,.05,6.06,2.44,8.52,8.47,8.53,18.23,.04,36.47,.01,54.7,.01,39.01,0,78.02,0,117.03,0,7.86,0,9.79,1.91,9.8,9.7,0,11.87,.02,23.74,0,35.62-.01,6.42-2.31,8.59-8.64,8.8-6.97,.23-13.33-.95-19.98-3.82-32.74-14.12-65.37-13.02-97.54,2.4-1.82,.87-4.02,1.32-6.05,1.33-16.11,.11-32.22,.05-48.34,.06-7.44,0-9.44,2.05-9.45,9.63,0,4.66-.04,9.33,0,13.99,.05,4.18-1.46,7.51-5.33,9.35-3.91,1.87-7.45,.82-10.53-2.01-18.41-16.94-36.82-33.87-55.18-50.87-1.4-1.3-2.38-3.07-3.55-4.62,0-1.7,0-3.39,0-5.09,2.21-2.49,4.24-5.17,6.65-7.44,7.99-7.53,16.06-14.97,24.19-22.35,10.6-9.63,21.28-19.16,31.93-28.74,1.7,0,3.39,0,5.09,0Z"/>
  <path class="cls-1" d="M140.43,242.07c0-55.86,45.61-101.61,101.32-101.64,56.55-.03,102.13,45.61,102.08,102.2-.05,55.65-45.98,101.33-101.76,101.21-56.15-.12-101.64-45.66-101.63-101.77Zm94.81,74.28c0,1.58,0,2.7,0,3.82,.05,6.93,2.16,10.13,6.75,10.23,4.74,.1,7.09-3.17,6.97-10.38-.05-2.72,.72-3.88,3.43-4.63,18.35-5.07,30.43-20.69,30.49-39.09,.06-18.66-12-34.5-30.42-39.59-2.71-.75-3.52-1.82-3.49-4.56,.13-15.4,.06-30.8,.08-46.2,0-1.05,.17-2.1,.26-3.07,.64-.08,.93-.2,1.18-.14,.68,.17,1.37,.35,2,.64,10.18,4.6,15.74,12.49,16.63,23.62,.42,5.2,3.13,8.28,7.28,8.06,4.17-.22,6.55-3.46,6.44-8.75-.33-15.96-11.47-31.37-27.21-36.34-5.16-1.63-7.28-3.57-6.77-9.09,.39-4.19-2.99-7.07-6.83-7.01-3.83,.06-6.55,2.9-6.76,7.22-.11,2.22-.02,4.46-.02,6.68-1.08,.33-1.74,.54-2.41,.73-19.22,5.46-31.35,20.59-31.46,39.26-.11,19.09,11.69,34.43,31.01,39.96,2.58,.74,2.88,1.97,2.87,4.17-.06,15.4-.03,30.8-.04,46.2,0,1.09-.13,2.18-.22,3.57-1.17-.26-2.16-.31-3.01-.69-10.37-4.6-16.03-12.56-16.87-23.89-.37-4.96-2.99-7.93-7.03-7.87-4.23,.06-6.8,3.28-6.67,8.51,.17,7.09,2.26,13.62,5.97,19.62,6.37,10.28,15.74,16.35,27.84,19.02Z"/>
  <path class="cls-1" d="M249.31,250.57c11.52,2.1,20.12,13.72,19.82,26.36-.28,11.74-9.29,23.03-19.82,24.5v-50.86Z"/>
  <path class="cls-1" d="M235.02,233.52c-10.64-1.05-19.97-13.1-19.91-25.51,.06-12.18,9.5-24.21,19.91-25.1v50.61Z"/>
</svg>