<?xml version="1.0" encoding="UTF-8"?>
<svg id="Layer_1" data-name="Layer 1" xmlns="http://www.w3.org/2000/svg" viewBox="0 0 484.27 484.27">
  <defs>
    <style>
      .cls-1 {
        fill: #181348;
      }
    </style>
  </defs>
  <path class="cls-1" d="M52.13,234.93h20.06v101.87h-20.06v-101.87Z"/>
  <path class="cls-1" d="M250.79,52.41c24.76,9.27,35.32,30.49,45.22,53.12h-46.92V52.41h1.7Z"/>
  <path class="cls-1" d="M235.51,52.41v53.12h-46.85c9.72-22.57,20.36-43.76,45.15-53.12h1.7Z"/>
  <path class="cls-1" d="M225.06,222.68c-4.93,5.22-9.37,9.92-13.81,14.61-7.69,8.11-15.46,16.14-23.04,24.35-9.5,10.28-9.41,24.46,.03,33.97,9.42,9.49,23.74,9.7,33.98,.3,11.35-10.42,22.54-21.01,34.13-31.82,3.34,2.45,6.66,4.78,9.87,7.26,30.31,23.45,60.63,46.89,90.87,70.43,4.29,3.34,5.12,7.65,3.02,12.05-1.99,4.17-6.32,6.63-10.8,5.64-1.98-.44-3.86-1.65-5.59-2.8-3.71-2.47-6.91-2.5-9.59,.18-2.59,2.59-2.65,6.1-.15,9.6,3.88,5.44,3.94,10.28,.19,14.19-3.74,3.9-9.05,3.94-14.55,.12-3.54-2.46-7.01-2.33-9.58,.34-2.52,2.61-2.49,5.98,.09,9.6,3.81,5.37,3.61,10.74-.56,14.48-3.88,3.48-8.66,3.5-13.5-.17-3.2-2.43-6.35-3.12-9.61-.38-3.09,2.59-3.2,6.22-.19,10.15,2.97,3.89,3.73,7.89,1.16,12.19-3.14,5.25-10.12,6.39-15.12,2.32-4.17-3.39-8.13-7.03-12.07-10.68-.67-.62-1.22-1.9-1.09-2.77,2.9-19.25-2.25-27.41-20.87-32.45-.13-6.32-1.43-12.39-5.73-17.53-4.33-5.18-9.96-7.73-16.4-8.59-3.65-21.32-12.94-28.67-32.07-25.28-.45-.91-.96-1.88-1.43-2.87-7.61-16.08-28.74-18.83-40.14-5.2-2.63,3.15-5.01,6.5-7.73,9.56-.73,.82-2.55,1.6-3.4,1.25-14.35-5.87-29.23-9.6-44.86-11.34v-74.75c1.65,0,3.16,0,4.67,0,20.23,0,40.46,.19,60.68-.15,4.49-.07,9.3-1.26,13.37-3.18,14.05-6.65,27.84-13.84,41.73-20.83,5.5-2.77,11.2-3.74,18.1-1.79Z"/>
  <path class="cls-1" d="M398.2,248.62v74.44c-4.3,.51-8.5,.78-12.62,1.54-5.55,1.02-11.13,2.1-16.51,3.77-3.51,1.08-5.83,.53-8.76-1.73-31.52-24.44-63.15-48.73-94.84-72.95-6.74-5.15-13.03-4.54-19.48,1.41-11.02,10.17-21.97,20.42-32.96,30.62-3.24,3.01-6.94,4.32-11.29,2.71-3.81-1.4-6.42-4.28-6.42-8.17,0-3,.86-6.76,2.78-8.86,13.19-14.39,26.66-28.53,40.26-42.53,7.73-7.95,18.4-9.43,28.53-4.41,13.81,6.84,27.44,14.04,41.4,20.55,4.45,2.08,9.68,3.38,14.57,3.45,23.34,.35,46.69,.16,70.03,.16,1.66,0,3.32,0,5.32,0Z"/>
  <path class="cls-1" d="M174.03,180.23c1.42-12.19,2.51-23.97,4.25-35.66,1.1-7.38,3.08-14.64,4.93-21.88,.31-1.22,1.99-2.99,3.05-3,15.97-.16,31.93-.06,47.9,0,.25,0,.49,.22,.98,.47v60.07h-61.12Z"/>
  <path class="cls-1" d="M249.46,119.56c3.41,0,6.62,0,9.83,0,12.58,0,25.16,.02,37.74-.02,2.1,0,3.66,.05,4.38,2.68,5.04,18.49,7.82,37.29,8.49,56.43,.01,.4-.15,.81-.28,1.53h-60.15v-60.61Z"/>
  <path class="cls-1" d="M168.09,119.75c-2.82,20.13-5.61,40.08-8.45,60.44h-52.68c.43-4.4,.67-8.71,1.3-12.95,2.32-15.67,7.18-30.52,14.92-44.36,.8-1.44,2.76-3.14,4.21-3.17,13.29-.24,26.59-.14,39.88-.11,.53,0,1.07,.21,.82,.16Z"/>
  <path class="cls-1" d="M316.47,119.57c13.47,0,27.45-.03,41.43,.07,.9,0,2.18,.81,2.63,1.61,10.2,18.15,15.94,37.6,17.03,58.85h-52.64c-2.81-20.16-5.6-40.1-8.45-60.53Z"/>
  <path class="cls-1" d="M324.25,194.47h53.37c-.33,3.76-.3,7.41-1.03,10.91-1.86,8.82-4.04,17.57-6.14,26.33-.45,1.86-1.17,3.19-3.64,3.16-15.1-.13-30.21-.07-45.32-.1-.4,0-.8-.19-1.22-.3,1.32-13.3,2.64-26.54,3.98-40.01Z"/>
  <path class="cls-1" d="M107.43,194.4h53.17c.31,4.22,.54,8.39,.94,12.55,.67,6.88,1.32,13.77,2.26,20.61,.31,2.22-.02,3.61-2.19,4.21-3.87,1.07-7.73,2.76-11.65,2.91-10.44,.41-20.9,.21-31.35,.05-1.36-.02-3.39-.87-3.94-1.93-3.88-7.56-7.95-29.74-7.24-38.4Z"/>
  <path class="cls-1" d="M412.41,235.28h19.73v101.17h-19.73v-101.17Z"/>
  <path class="cls-1" d="M310.28,194.56c-1.05,11.4-2.08,22.58-3.17,34.45-2.48-1.16-4.23-1.94-5.95-2.8-7.96-3.99-15.91-8-23.86-12.02-12.02-6.07-13.08-6.32-27.83-6.41v-13.21h60.81Z"/>
  <path class="cls-1" d="M285.16,59.09c26.29,8.66,47.74,23.96,64.89,46.14-1.11,.23-1.83,.51-2.56,.51-11.15,.03-22.31,.1-33.46-.08-1.3-.02-3.36-1.14-3.74-2.21-5.78-16.25-14.21-30.94-25.13-44.36Z"/>
  <path class="cls-1" d="M134.12,105.75c17.66-22.79,39.2-38.11,65.34-47.11-5.3,8.01-10.87,15.6-15.51,23.73-3.68,6.45-6.16,13.59-9.32,20.35-.56,1.19-1.86,2.89-2.84,2.9-12.22,.2-24.45,.13-37.66,.13Z"/>
  <path class="cls-1" d="M176.81,224.13c-.85-10.37-1.62-19.86-2.42-29.65h60.65v16.95c-2.03-.68-3.98-1.43-5.98-2-9.65-2.75-19-1.93-27.99,2.56-7.81,3.9-15.6,7.81-24.26,12.14Z"/>
  <path class="cls-1" d="M202.27,355.2c-.99,2.12-1.64,4.51-3.03,6.32-6.18,8.07-12.51,16.04-18.93,23.93-3.83,4.72-9.87,5.45-14.3,2.02-4.41-3.41-5.21-9.51-1.51-14.35,6.35-8.3,12.85-16.5,19.44-24.61,3.02-3.72,7.32-4.7,11.45-3.15,3.98,1.5,6.42,5.18,6.88,9.82Z"/>
  <path class="cls-1" d="M160.43,328.32c8.23,.57,13.53,9.09,9.09,15.62-5.15,7.58-11.05,14.69-17.02,21.66-3.38,3.94-9.58,3.84-13.47,.56-3.83-3.23-4.94-8.84-1.88-13.02,5.26-7.18,10.79-14.18,16.57-20.95,1.58-1.85,4.44-2.61,6.71-3.87Z"/>
  <path class="cls-1" d="M223.91,382.99c-.45,.97-1.12,3.34-2.49,5.18-4.57,6.1-9.32,12.07-14.15,17.98-4.17,5.1-10.43,5.92-14.92,2.17-4.37-3.65-4.76-9.63-.78-14.76,4.75-6.14,9.56-12.25,14.48-18.26,3-3.66,7.36-4.76,11.43-3.23,4,1.51,6.5,5.2,6.43,10.92Z"/>
  <path class="cls-1" d="M236.64,396.97c7.72,.69,12.81,8.78,8.81,15.1-3.83,6.05-8.51,11.63-13.31,16.98-3.41,3.79-9.24,3.59-13.13,.37-3.68-3.05-4.99-8.59-2.16-12.61,4.05-5.77,8.5-11.29,13.2-16.54,1.52-1.7,4.35-2.23,6.58-3.3Z"/>
</svg>