<?xml version="1.0" encoding="UTF-8"?>
<svg id="Layer_1" data-name="Layer 1" xmlns="http://www.w3.org/2000/svg" viewBox="0 0 484.27 484.27">
  <defs>
    <style>
      .cls-1 {
        fill: #ffffff;
      }
    </style>
  </defs>
  <path class="cls-1" d="M225.99,451.68c-8.44-8.09-16.92-16.15-25.32-24.29-5.48-5.3-5.05-9.23,1.38-13.3,8.37-5.29,16.77-10.55,25.19-15.77,4.53-2.81,8.45-2.25,10.57,1.36,2.06,3.52,.86,6.96-3.48,9.77-3.71,2.4-7.47,4.73-12.21,7.73,14.44,1.87,27.59,1.67,40.67,.06,42.09-5.19,78.03-22.99,107.28-53.71,28.31-29.74,44.72-65.21,47.97-106.21,4.58-57.71-14.65-106.59-56.86-146.07-8.91-8.34-19.59-14.8-29.58-21.95-2.87-2.06-5.31-4.07-4.59-7.96,.88-4.77,6.15-7.01,10.58-3.83,12.16,8.73,25.09,16.79,35.8,27.1,41.19,39.67,60.77,88.69,58.58,145.78-3.46,90.54-73.08,167.18-162.55,179.29-14.63,1.98-29.56,1.75-44.38,2.55,1.2,1.23,2.94,3.08,4.76,4.86,6.34,6.22,6.32,8.6-.2,14.6h-3.6Z"/>
  <path class="cls-1" d="M257.4,376.8v-70.93c21.58-1.1,39.19-9.73,51.83-27.38,9.1-12.72,12.75-27.07,11.43-42.59-2.42-28.53-25.37-56.6-63.06-58.45V106.63c5.35,0,10.58-.15,15.77,.13,1.02,.05,2.39,1.54,2.87,2.67,2.27,5.39,4.11,10.96,6.49,16.3,.73,1.64,2.45,3.27,4.11,4,9.44,4.14,18.98,8.08,28.56,11.91,1.46,.58,3.51,.74,4.92,.18,5.57-2.22,10.93-4.97,16.52-7.12,1.35-.52,3.85-.07,4.88,.91,7.28,6.94,14.25,14.21,21.47,21.2,1.89,1.83,1.86,3.29,.82,5.48-2.46,5.14-4.84,10.33-6.86,15.66-.63,1.66-.52,4.01,.15,5.69,3.68,9.32,7.53,18.58,11.6,27.74,.85,1.91,2.61,3.91,4.46,4.78,5.01,2.35,10.27,4.21,15.5,6.06,2.33,.82,3.26,2.05,3.22,4.59-.13,9.91-.16,19.82,.01,29.73,.05,2.81-1.14,3.95-3.56,4.82-5.36,1.92-10.71,3.92-15.91,6.25-1.5,.67-2.92,2.36-3.61,3.92-4.12,9.46-8.09,18.99-11.92,28.57-.58,1.45-.76,3.5-.2,4.91,2.21,5.57,4.68,11.05,7.28,16.46,1.01,2.11,.77,3.44-.91,5.08-7.2,7.03-14.33,14.12-21.32,21.35-1.81,1.88-3.3,1.93-5.48,.89-5.14-2.46-10.31-4.89-15.63-6.93-1.67-.64-4.03-.53-5.73,.13-9.46,3.72-18.85,7.62-28.17,11.69-1.67,.73-3.45,2.3-4.18,3.93-2.39,5.33-4.14,10.95-6.54,16.27-.6,1.32-2.64,2.69-4.11,2.8-4.74,.35-9.53,.13-14.72,.13Z"/>
  <path class="cls-1" d="M167.05,356.24c-7.56-4.57-11.44-10.97-13.69-17.85-5.47-.46-10.65-.25-15.5-1.42-11.75-2.84-20.52-13.43-21.83-25.36-.87-7.93,2.09-14.31,7.69-19.78,3.98-3.89,3.91-8.46-.04-11.14-3.19-2.16-6.22-1.52-9.02,.95-5.92,5.22-9.67,11.75-11.85,20.09-5.6-4.49-8.48-10.01-9.82-16.34-3.88-18.3,9.68-37.28,28.33-38.1,19.46-.86,38.99-.19,59.07-.19-1.21,2.09-2.3,3.79-3.2,5.58-1.87,3.73-.84,7.48,2.47,9.38,3.11,1.78,7.13,1.12,9.03-2.31,6.51-11.77,18.9-14.64,29.36-11.67,12.02,3.41,20.76,13.5,21.67,26.47,.68,9.71,.32,19.5,.34,29.26,.03,15.76,.16,31.53-.05,47.29-.17,12.64-5.84,22.29-17.37,27.78-11.21,5.34-21.98,3.62-31.76-3.75-11.24-8.47-13.11-21.97-4.87-33.41,3.1-4.3,3.02-8.15-.22-10.75-3.41-2.73-7.33-1.8-10.76,2.58-5.07,6.45-7.47,13.9-7.98,22.7Zm16.29-43.41c8.53,.1,17.48-3.09,24.05-8.58,4.37-3.65,5.26-7.4,2.58-10.81-2.69-3.43-6.56-3.45-11,.04-5.3,4.17-11.26,6.38-17.98,5.35-10.31-1.57-17.07-7.42-19.94-17.58-1.51-5.35-4.31-7.68-8.29-6.96-4.29,.78-6.28,4.54-5.17,9.77,3.44,16.21,18.79,28.57,35.75,28.77Z"/>
  <path class="cls-1" d="M153.18,145.57c2.42-7.39,6.3-13.81,13.69-18.29,.24,1.73,.43,3.11,.62,4.5,1.01,7.49,3.9,14.16,8.98,19.78,2.65,2.94,6.44,3.17,9.3,.9,2.83-2.25,3.36-5.97,1.33-9.29-9.16-14.99-7.55-26.96,4.82-35.71,13.37-9.47,31.25-7.19,41.29,5.24,4.72,5.85,6.86,12.59,6.86,20.04,.02,24.17,.12,48.35-.03,72.52-.1,15.66-9.64,27.5-24.15,30.58-10.72,2.28-20.01-1.52-26.11-10.68-.5-.75-.95-1.55-1.54-2.21-2.42-2.7-5.39-3.34-8.51-1.56-3.32,1.89-4.31,4.98-2.91,8.5,.81,2.04,2.16,3.87,3.5,6.19-.91,.14-1.57,.33-2.22,.33-18.16,.01-36.33,.26-54.49-.08-12.62-.24-22.1-6.46-27.73-17.72-5.45-10.91-4.8-21.77,2.18-31.98,1.15-1.68,2.69-3.08,3.68-4.19,3.54,5.75,6.87,11.32,10.39,16.76,.87,1.34,2.26,2.43,3.6,3.37,3.12,2.18,6.28,2.03,8.95-.73,2.68-2.77,3.04-6.28,.28-8.89-10.03-9.47-11.98-20.29-5.27-32.14,6.97-12.31,18.03-17,31.96-15.12,.42,.06,.86-.07,1.54-.13Zm32.03,25.03c-18.39-.18-34.28,12.4-37.65,28.91-1.03,5.03,.81,8.62,4.91,9.55,3.87,.89,6.95-1.38,8.39-6.17,5.5-18.35,23.41-24.18,38.57-12.56,3.95,3.03,7.69,2.99,10.35-.12,2.7-3.15,2.2-6.97-1.49-10.25-6.89-6.12-15.05-9.03-23.08-9.36Z"/>
  <path class="cls-1" d="M260.61,52.32c-2.94-2.94-5.24-5.21-7.51-7.51-3.56-3.61-4.04-7.4-1.33-10.3,2.56-2.75,7.05-2.55,10.42,.67,7.49,7.16,14.95,14.34,22.32,21.62,4.4,4.35,4,8.56-1.18,11.9-8.83,5.69-17.75,11.24-26.7,16.76-3.98,2.45-7.82,1.78-9.91-1.47-2.23-3.47-1.11-7.07,3.13-9.83,3.75-2.43,7.55-4.79,11.25-8.13-2.71-.26-5.42-.61-8.14-.78-90.04-5.39-169.51,57.66-184.89,146.68-12.37,71.58,20.58,143.68,82.79,181.17,1.28,.77,2.64,1.47,3.81,2.39,3.01,2.37,3.86,5.41,1.82,8.73-2.02,3.28-5.17,4.18-8.57,2.37-3.84-2.04-7.58-4.3-11.15-6.77-48.47-33.5-76.8-79.47-83.45-138.01-11-96.86,55.25-187.02,151-206.33,17.14-3.46,34.47-4.79,51.95-3.15,1.11,.1,2.24,.01,4.34,.01Z"/>
</svg>