<?xml version="1.0" encoding="UTF-8"?>
<svg id="Layer_1" data-name="Layer 1" xmlns="http://www.w3.org/2000/svg" viewBox="0 0 484.27 484.27">
  <defs>
    <style>
      .cls-1 {
        fill: #ffffff;
      }
    </style>
  </defs>
  <path class="cls-1" d="M52.13,332.36c5.84-9.83,11.75-19.63,17.52-29.5,13.49-23.12,26.91-46.29,40.36-69.44,3.32-5.72,5.09-6.2,10.75-2.98,8.25,4.7,16.5,9.4,24.72,14.15,4.98,2.87,5.5,4.92,2.58,9.95-18.74,32.27-37.49,64.54-56.26,96.8-2.95,5.07-4.95,5.6-9.92,2.77-8.36-4.77-16.73-9.53-25.05-14.37-1.67-.97-3.14-2.27-4.71-3.42,0-1.32,0-2.64,0-3.96Z"/>
  <path class="cls-1" d="M205,432.16c-6.51-3.84-7.41-7.33-3.6-13.96,1.45-2.51,2.8-5.09,4.41-7.5,2.62-3.93,7.24-4.92,11.07-2.54,3.49,2.17,4.69,6.43,2.34,10.4-2.89,4.89-4.52,10.82-10.25,13.59h-3.96Z"/>
  <path class="cls-1" d="M309.97,126.39c-16.75,1.24-29.24,8.88-35.75,24.29-6.54,15.47-3.14,29.69,7.71,42.21-16.69,16.66-54.88,29.14-90.35,9.51-33.89-18.76-49.47-58.93-37.14-95.87,12.22-36.62,48.45-59,86.8-53.62,37.25,5.22,66.94,36.76,68.74,73.49Zm-53.12,20.33c.05-6.17-1.67-11.85-7.15-14.99-4-2.29-8.74-3.52-13.3-4.58-5.12-1.19-10.42-1.54-15.6-2.49-3.49-.65-4.98-3.01-4.85-6.6,.22-5.97,4.18-11.09,10.08-12.74,6.16-1.72,12.64,.57,15.97,5.82,1.12,1.76,1.77,3.82,2.71,5.7,1.57,3.12,4.51,4.32,7.61,3.21,2.97-1.07,4.54-4.08,3.54-7.4-2.39-7.96-6.96-14.36-14.79-17.53-3.65-1.48-4.94-3.19-4.81-7.13,.17-5.03-4.45-7.84-8.63-5.78-2.94,1.45-3.57,4.13-3.32,7.03,.24,2.76-.59,4.2-3.45,5.13-2.69,.87-5.3,2.47-7.49,4.29-8.01,6.67-11.24,15.35-8.69,25.46,2.4,9.51,10.25,12.32,18.94,13.55,5.35,.76,10.71,1.45,16.02,2.42,3.62,.66,5.29,2.99,5.12,6.81-.37,8.31-8.18,14.62-16.39,13.13-6.46-1.17-9.88-5.46-12.1-11.25-1.48-3.85-4.46-5.21-7.82-4.01-3.26,1.16-4.7,4.34-3.43,8.12,2.75,8.16,7.79,14.39,16,17.47,2.59,.97,3.35,2.24,3.31,4.87-.08,4.87,2,7.32,5.73,7.45,3.91,.13,6.42-2.51,6.26-7.34-.1-2.99,1.17-3.98,3.73-4.94,10.14-3.82,16.71-13.27,16.8-23.68Z"/>
  <path class="cls-1" d="M211.46,394.66c-3.54-12.9-7.47-16.36-21.29-18.87-2.85-18.21-24.04-24.93-36.89-10.1-3.85-4.18-8.44-7.03-14.26-7.51-5.68-.47-10.65,1.28-15.16,4.95-4.96-3.7-9.82-7.32-14.66-10.95-.83-.62-1.6-1.32-2.59-2.14,4.63-7.96,9.19-15.81,13.76-23.67,10.21-17.56,20.43-35.11,30.59-52.7,1.01-1.74,1.89-2.82,4.25-2.48,12.5,1.84,25.04,3.5,38.13,5.31-.84,1.44-1.43,2.53-2.09,3.58-6.79,10.89-12.96,22.08-15.93,34.71-.54,2.29-.83,4.7-.82,7.05,.08,9.87,7.41,16.13,17.22,14.86,8.99-1.16,16.28-5.93,23.27-11.17,3.79-2.84,7.35-6.02,10.78-9.3,3.42-3.27,6.54-6.85,9.98-10.51,4.56,2.59,9.14,5.18,13.7,7.79,30.33,17.37,60.65,34.75,90.98,52.13,1.14,.66,2.32,1.29,3.35,2.1,3.06,2.42,3.85,6.21,2.1,9.58-1.78,3.41-5.74,5.09-9.42,3.83-1.36-.46-2.61-1.25-3.87-1.97-22.32-12.78-44.64-25.57-66.95-38.35-1.37-.79-2.73-1.62-4.15-2.31-3.59-1.75-6.77-.86-8.48,2.32-1.62,3.01-.75,6.06,2.58,8.06,5.09,3.06,10.27,5.95,15.42,8.91,14.07,8.08,28.21,16.03,42.14,24.35,2.22,1.32,4.48,4.12,4.85,6.52,.33,2.18-1.37,5.27-3.11,7.03-2.45,2.46-5.8,2-8.82,.27-8.81-5.06-17.61-10.11-26.42-15.17-7.55-4.33-15.11-8.64-22.65-13-2.71-1.57-5.39-2.27-8.06-.03-3.46,2.89-2.88,7.51,1.5,10.12,7.71,4.58,15.54,8.96,23.32,13.42,5.15,2.95,10.32,5.87,15.45,8.86,5.35,3.12,6.96,7.46,4.41,11.7-2.54,4.25-7,4.91-12.45,1.79-10.19-5.83-20.34-11.73-30.57-17.49-1.55-.87-3.8-2.02-5.07-1.49-2.04,.85-4.57,2.79-4.98,4.68-.4,1.84,1.03,5.04,2.68,6.17,5.2,3.58,10.87,6.46,16.35,9.63,1.14,.66,2.33,1.26,3.39,2.04,3.42,2.51,4.37,6.63,2.42,10.16-1.92,3.49-6.2,5.22-9.86,3.3-7.35-3.85-14.52-8.08-21.69-12.27-.7-.41-1.19-1.67-1.27-2.58-1.14-13.54-7.44-19.96-21.1-21.15Z"/>
  <path class="cls-1" d="M376.48,329.18c-9.13,9.41-17.94,18.48-26.94,27.76-10.61-6.07-21.12-12.08-31.62-18.1-26.09-14.95-52.18-29.91-78.28-44.86-6.21-3.56-7.96-3.16-12.27,2.37-7.93,10.2-17.09,19.07-28.55,25.24-2.74,1.47-5.86,2.31-8.9,3.1-2.01,.53-3.49-.58-3.18-2.8,.45-3.24,.83-6.58,1.91-9.64,4.55-12.93,11.3-24.7,19.82-35.4,6.1-7.66,15.17-9.78,24.06-11.66,20.96-4.42,41.96-3.24,62.95,.16,13.42,2.17,26.82,2.07,40.01-1.58,2.28-.63,3.26,.05,4.34,1.95,12.22,21.27,24.52,42.5,36.63,63.46Z"/>
  <path class="cls-1" d="M397,337.23c-1.36-1.43-3.13-2.72-4.15-4.46-10.43-17.74-20.73-35.54-31.07-53.33-6.63-11.4-13.27-22.8-19.88-34.21-2.4-4.15-1.96-6.02,2.13-8.39,9.01-5.23,18.04-10.42,27.11-15.56,4.32-2.45,6.08-1.91,8.64,2.48,16.91,29.07,33.81,58.14,50.71,87.22,2.66,4.58,2.24,6.38-2.25,8.98-8.78,5.09-17.6,10.13-26.43,15.15-1.24,.7-2.62,1.17-4.81,2.12Z"/>
  <path class="cls-1" d="M310.05,138.7c14.8-.09,27.02,12,27.12,26.84,.1,14.8-11.93,27.06-26.75,27.26-14.82,.2-27.07-11.81-27.24-26.69-.17-15.18,11.73-27.32,26.86-27.41Zm-1.94,24.65c-.9-.79-1.37-1.24-1.87-1.64-3.33-2.67-6.24-2.71-8.76-.14-2.56,2.62-2.36,5.86,.66,9.05,1.81,1.91,3.65,3.8,5.6,5.56,2.82,2.54,5.81,2.68,8.47,.14,3.52-3.36,6.91-6.86,10.11-10.52,2.37-2.71,2.05-5.76-.37-8.11-2.58-2.51-5.6-2.55-8.41,.05-1.82,1.69-3.47,3.57-5.43,5.61Z"/>
  <path class="cls-1" d="M177.64,378.38c-.28,.72-.66,2.29-1.43,3.63-5.26,9.15-10.52,18.29-15.93,27.35-3.15,5.27-9.21,6.16-12.93,2.04-2.49-2.76-2.81-5.95-.98-9.15,5.51-9.61,11.04-19.21,16.7-28.73,2.06-3.46,5.69-4.63,9.23-3.47,3.33,1.09,5.44,4.04,5.34,8.34Z"/>
  <path class="cls-1" d="M181.53,422.99c-7.26,.04-11.23-5.88-8.49-11.12,3.6-6.88,7.6-13.57,11.7-20.17,2.23-3.6,6.92-4.38,10.5-2.27,3.43,2.03,4.93,6.27,2.92,9.98-3.7,6.84-7.57,13.59-11.79,20.12-1.2,1.86-3.84,2.79-4.84,3.47Z"/>
  <path class="cls-1" d="M145.23,378.46c-1.12,4.01-2.83,8.47-7.15,11.08-2.97,1.79-6.18,1.29-8.8-1.07-2.46-2.23-3.42-5.1-2.03-8.23,1.11-2.51,2.45-4.99,4.08-7.19,2.25-3.03,5.53-3.47,8.91-2.24,3.13,1.14,4.79,3.58,4.99,7.65Z"/>
</svg>