<svg width="58" height="73" viewBox="0 0 58 73" fill="none" xmlns="http://www.w3.org/2000/svg">
<path d="M37.6156 0.998755C37.2281 1.37169 37.2281 1.41831 37.2281 4.09102V6.7948L35.5388 6.85696C34.1129 6.88804 33.7719 6.95019 33.4154 7.22989C32.594 7.83591 32.346 8.33316 32.346 9.31212C32.346 10.2911 32.594 10.7883 33.4154 11.3943C33.7719 11.674 34.1129 11.7362 35.5388 11.7673L37.2281 11.8294V14.9217V18.014H39.6924H42.1568L42.2652 17.2836C42.4977 15.6831 43.5671 14.238 45.055 13.5077C45.6905 13.1969 46.078 13.1347 47.1474 13.1347C48.2788 13.1347 48.5733 13.1969 49.2552 13.5387C49.6892 13.7718 50.2626 14.1292 50.5106 14.3468C51.1151 14.8595 51.9055 16.3513 52.0295 17.2681L52.138 18.014H54.2303C56.2297 18.014 56.3227 17.9984 56.6791 17.6255L57.0666 17.2526V9.31212V1.37169L56.6791 0.998755L56.3072 0.610279H47.1474H37.9876L37.6156 0.998755Z" fill="#181348"/>
<path d="M18.7226 8.23991C16.5992 8.51962 13.8869 9.35872 11.8876 10.3532C7.99739 12.3111 4.27767 16.025 2.32482 19.9563C1.3019 21.9919 0.480461 24.6957 0.216981 26.8246L0.0929909 27.9589H3.76621H7.43943L7.54792 27.2286C7.7804 25.6281 8.84982 24.1829 10.3377 23.4526C10.9732 23.1418 11.3606 23.0797 12.43 23.0797C13.5615 23.0797 13.8559 23.1418 14.5379 23.4837C14.9719 23.7168 15.5453 24.0742 15.7933 24.2917C16.3977 24.8045 17.1882 26.2962 17.3122 27.213L17.4207 27.9589H19.885H22.3493V26.1098V24.2606L21.6208 24.1519C20.6909 24.0275 19.203 23.2351 18.6916 22.629C18.4746 22.3804 18.1181 21.8055 17.8856 21.3704C17.5447 20.6867 17.4827 20.3914 17.4827 19.2571C17.4827 18.1849 17.5447 17.7964 17.8546 17.1593C18.5831 15.6676 20.0245 14.5954 21.6208 14.3623L22.3493 14.2535V11.1612V8.06898L21.0784 8.08452C20.3654 8.10006 19.3115 8.16222 18.7226 8.23991Z" fill="#181348"/>
<path d="M11.4226 25.6901C10.2912 26.2029 9.95024 26.9799 9.95024 28.9844V30.4451H4.97512H0L0.108492 31.4862C0.588955 36.381 2.6038 40.8407 5.88955 44.3059C6.63349 45.0828 8.67933 46.9009 10.4462 48.346L13.67 50.9876V53.1476V55.3075H18.0096H22.3493V50.3505V45.3936L21.6208 45.2848C20.7994 45.1605 19.6835 44.6477 18.986 44.0572C18.7381 43.8397 18.2886 43.2337 17.9941 42.6898C17.5137 41.7885 17.4672 41.6021 17.4827 40.39C17.4827 39.3178 17.5602 38.9294 17.8546 38.2923C18.5831 36.8005 20.0245 35.7283 21.6208 35.4953L22.3493 35.3865V32.9158V30.4451H18.6451H14.9409L14.8789 28.7513C14.8324 26.9177 14.6929 26.5603 13.7939 25.8921C13.267 25.5037 12.0426 25.3949 11.4226 25.6901Z" fill="#181348"/>
<path d="M33.7409 25.6901C32.6095 26.2029 32.2685 26.9799 32.2685 28.9844V30.4451H28.5488H24.8291V34.1589V37.8727L23.1397 37.9349C21.3109 37.9815 20.9544 38.1213 20.2724 39.0537C19.823 39.6597 19.823 41.1204 20.2724 41.7264C20.9544 42.6587 21.3109 42.7986 23.1397 42.8452L24.8291 42.9074V49.1074V55.3075H27.9289H31.0286V53.1476V50.9876L34.2524 48.346C36.0192 46.9009 38.0651 45.0828 38.809 44.3059C42.0793 40.8407 44.1096 36.3654 44.5901 31.4862L44.6986 30.4451H40.9789H37.2591L37.1971 28.7513C37.1507 26.9177 37.0112 26.5603 36.1122 25.8921C35.5853 25.5037 34.3609 25.3949 33.7409 25.6901Z" fill="#181348"/>
<path d="M11.5776 58.1815C11.3296 58.4147 11.1901 58.7412 11.1901 59.0365C11.1901 59.3318 11.3296 59.6583 11.5776 59.8914L11.9496 60.2801H22.3493H32.749L33.121 59.8914C33.6324 59.394 33.6324 58.679 33.121 58.1815L32.749 57.7929H22.3493H11.9496L11.5776 58.1815Z" fill="#181348"/>
<path d="M14.0574 63.154C13.8094 63.3872 13.67 63.7136 13.67 64.009C13.67 64.3043 13.8094 64.6308 14.0574 64.8639L14.4294 65.2525H22.3493H30.2692L30.6412 64.8639C30.8891 64.6308 31.0286 64.3043 31.0286 64.009C31.0286 63.7136 30.8891 63.3872 30.6412 63.154L30.2692 62.7654H22.3493H14.4294L14.0574 63.154Z" fill="#181348"/>
<path d="M16.3047 67.9572C16.3047 68.0659 16.5527 68.6563 16.8472 69.2467C17.5137 70.5828 18.4436 71.4839 19.8385 72.1364C21.3574 72.8666 23.3412 72.8666 24.8601 72.1364C26.255 71.4839 27.1849 70.5828 27.8514 69.2467C28.1458 68.6563 28.3938 68.0659 28.3938 67.9572C28.3938 67.7707 27.3554 67.7397 22.3493 67.7397C17.3432 67.7397 16.3047 67.7707 16.3047 67.9572Z" fill="#181348"/>
</svg>
