<svg width="77" height="69" viewBox="0 0 77 69" fill="none" xmlns="http://www.w3.org/2000/svg">
<path d="M36.9876 0.796848C36.5067 1.07679 36.3051 1.41895 36.2896 1.97883C36.2896 2.25877 36.5998 4.3739 36.9876 6.67565C37.3754 8.9774 37.6856 11.1236 37.6856 11.4347C37.6856 11.9946 37.515 12.1812 34.335 15.2917C32.396 17.1735 30.8758 18.791 30.7517 19.0709C30.5811 19.5064 30.5811 19.6619 30.7672 20.1129C30.8913 20.4084 31.124 20.7195 31.2791 20.7972C31.4342 20.8905 33.5129 21.2482 35.9017 21.6059C38.2906 21.9481 40.4778 22.3214 40.7726 22.4147C41.269 22.5702 41.4086 22.8035 43.4251 26.9715C44.7592 29.7087 45.7054 31.4662 45.9226 31.6217C46.388 31.9327 46.9774 31.9327 47.4273 31.6217C47.7375 31.4039 48.8389 29.2577 51.6001 23.5033C51.8948 22.9123 52.143 22.6013 52.4842 22.4613C52.748 22.3369 54.9507 21.9636 57.3706 21.6059C59.7905 21.2482 61.9001 20.9061 62.0552 20.8128C62.4586 20.595 62.6602 20.1596 62.6602 19.4753C62.6602 18.9154 62.5206 18.7443 59.17 15.4627L55.6642 12.0412L55.6798 11.3414C55.6798 10.9526 55.99 8.80633 56.3778 6.55123C56.7656 4.29614 57.0758 2.22767 57.0758 1.93217C57.0758 1.21676 56.3002 0.548012 55.6177 0.656878C55.354 0.703535 53.3684 1.69889 51.1967 2.86532C49.0405 4.03175 47.086 5.01155 46.8533 5.0582C46.5121 5.13597 45.5503 4.68495 42.1687 2.88087C39.8263 1.63668 37.7787 0.61022 37.6081 0.61022C37.4375 0.61022 37.1582 0.703535 36.9876 0.796848Z" fill="#181348"/>
<path d="M74.8373 31.0768C72.6035 31.6367 66.9571 36.1003 61.8071 41.3725C55.0127 48.3556 55.5401 47.8579 54.2061 48.5111C51.1502 50.0197 45.2866 50.424 38.7715 49.5997C35.9948 49.242 32.2099 48.5733 31.6204 48.34C30.488 47.889 30.8293 46.1782 32.0702 46.1782C32.3495 46.1782 33.8231 46.3804 35.3278 46.6448C39.4385 47.3291 41.9825 47.5779 44.8212 47.5779C48.3115 47.5779 51.3829 47.1736 52.9496 46.5048C53.7097 46.1627 54.749 45.3073 54.749 45.0118C54.749 44.7163 53.7718 43.8298 52.8255 43.2388C51.0261 42.1501 49.025 41.7302 43.5027 41.2792C39.0507 40.906 38.725 40.7971 35.2037 38.6353C32.1323 36.7379 29.5263 35.9136 26.2842 35.8048C24.4228 35.7426 23.9109 35.7737 22.7164 36.0536C21.0411 36.458 19.1021 37.3756 16.8528 38.853C14.3243 40.5171 10.2291 43.6898 10.2291 44.0009C10.2291 44.0631 10.5083 44.2964 10.8341 44.5141C12.9903 45.9449 16.9924 49.6931 18.8539 52.0104C20.219 53.7211 22.3441 57.0182 23.2749 58.8379L24.1125 60.5175L26.4393 60.4242C27.7268 60.362 31.1395 60.1754 34.0403 60.0198C51.9879 59.0089 52.0654 58.9934 54.2682 58.1536C55.9745 57.4848 57.8204 56.2873 59.2476 54.9187C60.7367 53.4723 74.1858 36.9712 75.6905 34.7161C76.7453 33.1298 77.0555 32.3521 76.8539 31.73C76.6832 31.1857 75.706 30.8591 74.8373 31.0768Z" fill="#181348"/>
<path d="M2.53512 44.5295C0.363415 45.5404 -0.660388 48.6354 0.456488 50.8438C0.658146 51.2482 1.8681 52.6323 3.38829 54.1876C4.79989 55.6339 7.6076 58.5733 9.60866 60.6885C13.7659 65.1053 16.4185 67.6093 17.4423 68.107L18.1404 68.4491L19.1642 67.7959C19.7071 67.4227 20.5292 66.7695 20.9791 66.3184C22.732 64.5921 22.8405 63.5035 21.5065 60.7196C18.6523 54.7786 14.2313 49.6463 8.86408 46.0692C7.91784 45.4316 6.7234 44.7317 6.22701 44.5295C5.01706 44.0319 3.60546 44.0319 2.53512 44.5295Z" fill="#181348"/>
</svg>
