<?xml version="1.0" encoding="UTF-8"?>
<svg id="Layer_1" data-name="Layer 1" xmlns="http://www.w3.org/2000/svg" viewBox="0 0 484.27 484.27">
  <defs>
    <style>
      .cls-1 {
        fill: #ffffff;
      }
    </style>
  </defs>
  <path class="cls-1" d="M101.91,223.03c7.75-4.11,14.93-7.9,22.1-11.71,5.09-2.71,10.1-5.57,15.26-8.14,5.01-2.5,9.48,.45,9.39,6.06-.03,1.82-.29,3.64-.44,5.47-.14,1.65-.28,3.3-.48,5.7,1.97-.92,3.34-1.51,4.67-2.18,9.53-4.84,19.03-9.72,28.57-14.53,6.27-3.16,10.56-.54,10.57,6.48,.03,28.99,.02,57.97,0,86.96,0,6.11-2,8.16-8.03,8.17-41.08,.02-82.16,.02-123.24,0-5.82,0-7.88-2.08-7.88-7.87-.02-21.11-.69-42.24,.21-63.31,.69-16.26,3.37-32.43,5.16-48.64,.47-4.19,1-8.38,1.42-12.58,.41-4.14,2.6-6.53,6.78-6.59,7.74-.12,15.48-.17,23.21,0,4.46,.1,6.31,2.13,6.87,6.94,1.78,15.37,3.51,30.74,5.27,46.11,.11,.95,.3,1.89,.59,3.67Zm-11.54,44.39c-.03-3.51-3.04-6.41-6.55-6.31-3.35,.1-6.12,2.89-6.2,6.24-.08,3.51,2.84,6.52,6.33,6.54,3.49,.02,6.45-2.96,6.42-6.47Zm31.65-6.32c-3.5-.02-6.45,2.95-6.42,6.46,.04,3.51,3.05,6.42,6.55,6.32,3.34-.1,6.12-2.91,6.2-6.25,.08-3.5-2.85-6.52-6.34-6.53Zm37.77,12.78c3.5,.1,6.52-2.8,6.57-6.31,.05-3.34-2.64-6.24-5.98-6.45-3.51-.22-6.6,2.56-6.76,6.08-.17,3.51,2.67,6.58,6.18,6.68Z"/>
  <path class="cls-1" d="M283.92,77.17c9.53,0,18.66,.21,27.77-.07,6.98-.21,11.51,2.66,14.04,9.1,1.33,3.4,2.66,6.86,4.48,10,7.44,12.83,10.06,26.57,8.76,41.28-.48,5.44,0,10.97-.11,16.45-.09,5.25-2.24,7.31-7.52,7.5-.56,.02-1.13,.04-1.69,0-4.83-.31-8.47,.27-12.01,5.02-6.76,9.09-20.63,7.62-26.94-2.11-1.42-2.18-2.81-2.98-5.36-2.97-18.99,.1-37.98,.09-56.97,0-2.49-.01-3.97,.65-5.41,2.88-7.01,10.81-21.92,10.83-28.91,.05-1.43-2.2-2.85-2.93-5.38-2.94-15.35-.05-22.3-7.15-22.3-22.57,0-21.67,0-43.33,0-65,0-14.12,7.43-21.55,21.64-21.57,24.76-.03,49.51-.04,74.27,0,13.85,.02,21.13,7.21,21.38,20.93,.02,1.11,.13,2.21,.25,3.99Zm-13.07,71.81v-20.65h-91.93c0,5.1-.16,9.87,.05,14.63,.14,3.16,2.15,5.54,5.23,5.7,3.05,.16,6.64,2.09,9.15-1.73,8.05-12.23,21.92-12.11,30.39,.13,.61,.88,1.9,1.84,2.88,1.85,14.61,.12,29.21,.08,44.22,.08Zm13.05-59.32v22.9h39.91c-3.31-7.42-6.34-14.33-9.53-21.17-.37-.79-1.64-1.64-2.51-1.65-9.12-.12-18.23-.07-27.86-.07Zm-.02,58.94q4.59,.53,6.58-2.52c7.12-10.87,22.35-10.96,29.22,.05,1.82,2.92,3.64,3.35,6.49,2.39v-22.75h-42.3v22.83Z"/>
  <path class="cls-1" d="M381.66,305.3c-14.21,0-28.42,.02-42.63-.01-6.03-.01-8.02-2.05-8.02-8.16-.02-28.28-.02-56.57,0-84.85,0-5.79,2.1-8.02,7.83-8.03,28.42-.05,56.84-.05,85.26,0,6,0,8.01,2.17,8.02,8.27,.02,28.28,.02,56.57,0,84.85,0,5.85-2.03,7.91-7.83,7.92-14.21,.04-28.42,.01-42.63,.01Zm-10.7-74.71c0-1.71,0-3.22,0-4.73-.03-9.79-.02-9.71-9.78-9.26-2.39,.11-3.19,.93-3.15,3.25,.1,5.48-.06,10.97,.07,16.44,.12,4.95,2.43,7.3,7.27,7.33,10.82,.08,21.64,.08,32.47,0,4.66-.04,6.99-2.34,7.19-6.99,.16-3.65,.12-7.31,.03-10.96-.26-10.59,2.2-8.79-9.51-9.06-2.56-.06-3.52,.86-3.41,3.42,.15,3.47,.04,6.94,.04,10.56h-21.22Z"/>
  <path class="cls-1" d="M243.36,432.03c-15.61,0-31.23,.02-46.84,0-7.22-.01-9.37-2.49-8.29-9.62,2.71-17.83,11.02-32.29,26-42.64,5.17-3.57,6.62-3.45,11.62,.3,9.85,7.38,24.78,7.41,34.76,.06,5.24-3.85,6.63-3.98,11.99-.22,15.31,10.73,23.55,25.71,25.99,44.03,.72,5.41-1.79,8.04-7.55,8.06-15.89,.06-31.79,.02-47.68,.02Z"/>
  <path class="cls-1" d="M225.48,348.12c0-3.38,.16-6.76-.04-10.12-.32-5.53,2.4-9.17,7.04-11.43,7.27-3.55,14.7-3.53,21.93,.15,4.47,2.28,6.92,5.87,6.77,11.19-.2,7.03-.18,14.07,0,21.09,.13,5.13-2.2,8.66-6.51,10.91-7.34,3.84-14.87,3.87-22.29,.23-4.66-2.29-7.28-5.97-6.94-11.48,.21-3.5,.04-7.03,.04-10.55Z"/>
  <path class="cls-1" d="M128.12,325.73c2.2,1.51,4.25,2.35,5.49,3.86,12.57,15.33,27.65,27.53,45.17,36.78,3.97,2.1,5.08,5.49,3.35,8.73-1.72,3.23-5.31,4.23-9.08,2.27-19.1-9.93-35.55-23.15-48.91-40.05-1.36-1.72-1.68-5.05-1.1-7.27,.43-1.66,3.09-2.74,5.08-4.33Z"/>
  <path class="cls-1" d="M365.7,328.82c-1.18,2.35-1.74,4.11-2.79,5.5-11.7,15.39-25.86,28.06-42.44,38.02-3.97,2.38-7.59,1.79-9.6-1.44-2-3.21-.96-6.63,3.13-9.13,15.28-9.35,28.42-21.05,39.28-35.28,2.03-2.67,4.72-3.99,7.69-2.53,1.86,.91,3.09,3.12,4.71,4.87Z"/>
  <path class="cls-1" d="M152.61,133.05c-1.52,2.31-2.34,4.33-3.8,5.67-9.62,8.79-17.86,18.7-24.87,29.66-2.52,3.94-6.07,4.9-9.27,2.82-3.03-1.98-3.62-5.55-1.34-9.27,7.5-12.18,16.56-23.11,27.36-32.46,1.66-1.44,4.96-2.03,7.14-1.51,1.79,.44,3.04,3.11,4.78,5.08Z"/>
  <path class="cls-1" d="M379.78,178.97c-1.65,1.57-3.24,4.31-5.25,4.65-2.08,.36-5.31-.98-6.7-2.67-2.55-3.09-3.94-7.11-6.14-10.53-3.19-4.96-6.62-9.77-10.02-14.6-2.75-3.91-2.68-7.36,.3-9.71,3.15-2.48,6.87-1.83,9.66,2.34,5.54,8.28,10.8,16.75,16.09,25.2,.79,1.26,1.11,2.82,2.05,5.31Z"/>
</svg>