<?xml version="1.0" encoding="UTF-8"?>
<svg id="Layer_1" data-name="Layer 1" xmlns="http://www.w3.org/2000/svg" viewBox="0 0 484.27 484.27">
  <defs>
    <style>
      .cls-1 {
        fill: #ffffff;
      }
    </style>
  </defs>
  <path class="cls-1" d="M52.13,320.68c2.93-8.03,8.73-10.95,17.17-10.85,25.01,.28,50.04-.08,75.05,.27,4.24,.06,8.93,1.59,12.58,3.81,10.41,6.33,20.46,13.27,30.49,20.2,3.15,2.18,6.3,2.96,10.06,2.95,72.34-.08,144.68,.02,217.02-.16,8.56-.02,14.64,2.55,17.62,10.85v5.42c-1.35,2.32-2.46,4.83-4.11,6.92-7.43,9.47-14.92,18.89-22.63,28.12-1.22,1.46-3.68,2.67-5.57,2.67-96.72,.13-193.45,.13-290.17,0-2.02,0-4.61-1.29-5.97-2.83-11.64-13.21-23.17-26.51-34.48-39.99-5.96-7.1-11.4-14.63-17.08-21.97,0-1.81,0-3.61,0-5.42Z"/>
  <path class="cls-1" d="M52.13,221.39c.83-3.47,1.58-6.97,2.52-10.42,9.16-33.66,41.74-54.5,76.61-49.04,33.59,5.27,58.32,36.17,56.41,70.5-1.91,34.38-30.12,62.25-64.49,63.73-34.76,1.49-64.98-23.23-70.17-57.39-.15-1-.58-1.96-.88-2.94,0-4.81,0-9.63,0-14.44Zm40.66,29.79c.92,9.96,6.42,17.89,16.59,22.73,1.62,.77,2.62,2.76,4.08,4,2.04,1.73,4.03,4.14,6.41,4.69,3.2,.74,5.39-1.64,6.79-4.73,.69-1.53,2.13-3.12,3.63-3.82,5.65-2.63,10.23-6.32,13.33-11.74,10.36-18.14-2.75-40.31-23.77-40.71-8.02-.15-13.5-6.23-13.32-13.6,.16-6.86,5.71-12.61,12.58-13.01,7.54-.45,13.38,4.69,14.35,12.61,.63,5.2,3.46,7.98,7.64,7.51,4.14-.47,6.56-3.85,6.03-9-1.08-10.43-6.51-17.96-15.96-22.41-2.42-1.14-3.92-2.3-5.09-4.95-.87-1.96-4.02-4.04-6.14-4.02-2.12,.02-5.13,2.15-6.07,4.14-1.14,2.41-2.4,3.63-4.72,4.72-10.67,5.01-16.54,13.47-16.27,25.34,.27,11.64,6.24,19.95,16.94,24.43,3.51,1.47,7.59,1.72,11.45,2.23,8.3,1.08,13.82,8.72,11.77,16.53-1.7,6.48-7.53,10.64-14.19,10.11-6.69-.53-11.44-5.47-12.33-12.81-.59-4.89-3.35-7.61-7.4-7.3-3.91,.3-6.36,3.35-6.32,9.07Z"/>
  <path class="cls-1" d="M432.13,190.7c-2.45,3.36-4.57,7.02-7.42,10.01-7.26,7.63-14.83,14.96-22.3,22.39-6.62,6.59-14.6,7.18-20.39,1.56-5.78-5.61-5.34-13.57,1.12-20.34,.61-.64,1.17-1.33,2.15-2.45-1.55-.18-2.65-.4-3.74-.41-9.94-.03-19.89,.04-29.83-.04-8.44-.06-14.48-5.76-14.48-13.45,0-7.75,5.99-13.37,14.49-13.42,10.95-.07,21.91-.02,34.02-.02-1.86-2-3.05-3.22-4.17-4.5-4.86-5.53-4.79-13.28,.14-18.4,5.06-5.26,13.27-5.78,18.71-.58,9.57,9.15,18.87,18.59,28.11,28.07,1.61,1.65,2.42,4.09,3.6,6.16v5.42Z"/>
  <path class="cls-1" d="M432.13,95.93c-2.99,8.28-9.05,11.18-17.62,10.84-9.91-.39-19.84-.09-30.96-.09,1.79,1.93,2.94,3.14,4.05,4.4,5.01,5.66,4.88,13.62-.29,18.72-5.21,5.14-13.27,5.41-18.73,.15-9.31-8.98-18.46-18.14-27.48-27.41-5.31-5.45-5.3-13.21,.01-18.66,9.02-9.27,18.21-18.38,27.5-27.39,1.77-1.71,4.32-2.61,6.51-3.89,1.81,0,3.62,0,5.43,0,.52,.28,1.03,.61,1.57,.84,10.02,4.31,12.22,14.7,4.78,22.66-.88,.94-1.7,1.92-3.04,3.43,2.11,.1,3.55,.22,4.98,.22,8.57,.02,17.16,.32,25.71-.08,8.57-.4,14.58,2.59,17.57,10.84v5.42Z"/>
  <path class="cls-1" d="M243.94,52.6c3.66,3.86,8.04,7.26,10.83,11.67,5.6,8.82,8.17,18.91,10.33,29.33h-45.72c.32-1.78,.39-3.71,1.01-5.44,2.97-8.16,5.46-16.58,9.4-24.26,2.26-4.4,6.94-7.57,10.53-11.3,1.21,0,2.41,0,3.62,0Z"/>
  <path class="cls-1" d="M255.44,256.15v66.86h-67.17v-66.86h67.17Z"/>
  <path class="cls-1" d="M269.54,322.92v-66.85h67.17v66.85h-67.17Z"/>
  <path class="cls-1" d="M418.1,323.13h-67.01v-67.01h67.01v67.01Z"/>
  <path class="cls-1" d="M269.45,134.14c-.49,7.2-1.01,14.24-1.43,21.29-.16,2.6-1.07,4.2-3.98,4.19-14.59-.03-29.18-.03-43.77,0-2.88,0-4-1.52-4-4.16,0-14.41,0-28.81-.03-43.22,0-3.03,1.56-4.25,4.44-4.25,14.29,.01,28.58,.03,42.88-.02,3.28-.01,4.39,1.64,4.54,4.68,.36,7.2,.9,14.4,1.35,21.48Z"/>
  <path class="cls-1" d="M265.08,174.08c-2.94,13.33-6.28,26.38-15.61,36.87-4.82,5.42-10.27,5.72-14.53-.09-4.55-6.2-8.06-13.29-11.21-20.35-2.28-5.12-3.24-10.82-4.83-16.43h46.18Z"/>
  <path class="cls-1" d="M201.8,110.3v46.46c-13.56-3.08-26.99-6.34-37.52-16.18-4.82-4.5-4.85-9.27,.23-13.6,4.17-3.56,8.98-6.7,14.02-8.83,7.42-3.14,15.29-5.21,23.27-7.84Z"/>
  <path class="cls-1" d="M282.46,110.94c13.23,2.88,26.18,6.23,36.68,15.29,5.68,4.9,5.57,9.83,.29,15.02-6.72,6.61-27.5,15.01-36.97,14.98v-45.29Z"/>
  <path class="cls-1" d="M318.74,107.41c-12.08-3.51-24.44-7.04-36.74-10.79-1.17-.36-2.36-1.99-2.75-3.27-3.67-11.99-7.16-24.04-10.62-35.76,15.28-.52,45.38,29.03,50.11,49.82Z"/>
  <path class="cls-1" d="M319.03,158.81c-4.7,21.7-31.16,48.02-51.14,51.53,2.92-8.4,6-16.89,8.8-25.48,1.43-4.38,1.09-10.17,3.9-13.02,2.67-2.71,8.43-2.3,12.76-3.48,4.35-1.19,8.68-2.47,12.9-4.03,4.21-1.57,8.26-3.54,12.78-5.5Z"/>
  <path class="cls-1" d="M165.63,160.28c12,3.47,24.47,7.03,36.89,10.75,.99,.3,2.06,1.59,2.38,2.64,3.7,12.27,7.26,24.58,10.72,36.44-17.75-1.82-47.38-31.29-49.99-49.84Z"/>
  <path class="cls-1" d="M165.44,107.86c4.36-20.61,30.88-46.98,50.61-50.45-3.18,9.89-7.23,19.9-9.44,30.29-1.45,6.78-4.18,9.27-10.86,10.71-10.34,2.24-20.29,6.23-30.31,9.44Z"/>
  <path class="cls-1" d="M118.07,404.91H392.29c-6.78,8.23-12.66,16.21-19.51,23.24-2.32,2.38-7.1,3.3-10.77,3.31-49.76,.21-99.52,.14-149.28,.14-21.11,0-42.22-.09-63.33,.06-5.91,.04-10.4-2-14.11-6.56-5.4-6.62-11.07-13.02-17.21-20.2Z"/>
</svg>